<svg width="109" height="124" viewBox="0 0 109 124" fill="none" xmlns="http://www.w3.org/2000/svg">
<path d="M108.5 86.8015V105.802C108.5 118.5 103.75 124 90.3015 124H18.25C5.07349 124 0 118.927 0 105.75V18.25C0 5.07349 6.07349 0 19.25 0H89.3015C103.25 0 108.5 5.5 108.5 19.1985V86.8015ZM86.2242 93H20.25C16.375 93 12.5 96.0992 12.5 100.75C12.5 105.401 15.5992 108.5 20.25 108.5H86.2242C90.5 108.5 94 105 94 100.75C94 96.5 91 93 86.2242 93ZM28.0038 42.6288C28.0038 42.7537 28.0378 42.8672 28.0378 42.9921L37.0253 50.8556C37.3215 51.1152 37.5316 51.459 37.6274 51.841C37.7233 52.2231 37.7005 52.6252 37.562 52.994C37.4234 53.3627 37.1758 53.6805 36.8521 53.9049C36.5283 54.1293 36.1439 54.2497 35.75 54.25H35.7462C35.2826 54.2265 34.838 54.0585 34.4747 53.7694L28.7606 48.7705C31.5571 60.7777 42.2664 69.75 55.125 69.75C67.9836 69.75 78.6929 60.7777 81.4932 48.7705L75.7791 53.7694C75.4254 54.0769 74.9725 54.2462 74.5038 54.2462H74.5C73.9493 54.2158 73.4298 53.981 73.0431 53.5878C72.7546 53.2228 72.5866 52.7771 72.5625 52.3125C72.5928 51.761 72.8292 51.2411 73.2247 50.8556L82.2122 42.9921C82.2159 42.8634 82.25 42.7499 82.25 42.625C82.25 39.9496 81.7429 37.4142 81.0239 34.9734L75.8737 40.1199C75.5103 40.4836 75.0174 40.6881 74.5033 40.6884C73.9892 40.6887 73.496 40.4848 73.1323 40.1215C72.7685 39.7582 72.5639 39.2654 72.5635 38.7513C72.5631 38.2372 72.7669 37.744 73.1301 37.3801L79.5292 30.9849C77.1084 25.9438 73.1862 21.7758 68.3015 19.0533C70.2867 22.2267 71.0366 26.0189 70.4087 29.709C69.7808 33.399 67.8188 36.7298 64.8958 39.0679C66.5737 40.8068 67.7551 42.9636 68.3169 45.3139C68.8788 47.6641 68.8006 50.122 68.0905 52.4318C67.3805 54.7417 66.0645 56.819 64.2794 58.4478C62.4943 60.0766 60.3055 61.1974 57.9404 61.6935L57.5961 53.391L60.665 55.4799C60.8257 55.5892 61.0157 55.6472 61.21 55.6464C61.3812 55.6475 61.5496 55.603 61.6979 55.5174C61.8462 55.4319 61.969 55.3084 62.0538 55.1597C62.1385 55.011 62.1822 54.8423 62.1802 54.6712C62.1782 54.5 62.1307 54.3324 62.0425 54.1857L59.9763 50.7194L64.313 49.8187C64.5312 49.7732 64.727 49.6539 64.8676 49.4809C65.0082 49.3079 65.085 49.0918 65.085 48.8689C65.085 48.646 65.0082 48.4299 64.8676 48.2569C64.727 48.0839 64.5312 47.9646 64.313 47.9191L59.9763 47.0184L62.0425 43.5521C62.1307 43.4054 62.1782 43.2378 62.1802 43.0666C62.1822 42.8955 62.1385 42.7268 62.0538 42.5781C61.969 42.4294 61.8462 42.3059 61.6979 42.2204C61.5496 42.1348 61.3812 42.0903 61.21 42.0914C61.0175 42.099 60.8301 42.1549 60.665 42.2542L57.229 44.5928L56.0938 17.3959C56.0828 17.1463 55.9759 16.9106 55.7954 16.7379C55.615 16.5652 55.3748 16.4688 55.125 16.4688C54.8752 16.4688 54.635 16.5652 54.4546 16.7379C54.2741 16.9106 54.1672 17.1463 54.1562 17.3959L53.0361 44.2333L50.1299 42.2579C49.9474 42.1341 49.7281 42.0762 49.5083 42.0938C49.2885 42.1114 49.0812 42.2034 48.9207 42.3546C48.7602 42.5059 48.6561 42.7073 48.6255 42.9257C48.5949 43.1441 48.6397 43.3664 48.7524 43.5559L50.8186 47.0222L46.4819 47.9229C46.2639 47.9679 46.068 48.0869 45.9274 48.2595C45.7867 48.4322 45.71 48.6481 45.71 48.8708C45.71 49.0935 45.7867 49.3094 45.9274 49.482C46.068 49.6547 46.2639 49.7736 46.4819 49.8187L50.8186 50.7231L48.7524 54.1857C48.67 54.3384 48.6234 54.508 48.6162 54.6814C48.6306 54.9445 48.7379 55.1939 48.9189 55.3853C49.0991 55.5552 49.3373 55.65 49.585 55.6501C49.779 55.6492 49.9685 55.5913 50.1299 55.4836L52.6388 53.777L52.3096 61.701C49.9443 61.204 47.7553 60.0824 45.9703 58.4528C44.1853 56.8233 42.8694 54.7453 42.1594 52.435C41.4494 50.1246 41.3713 47.6663 41.9331 45.3155C42.495 42.9648 43.6763 40.8075 45.3542 39.0679C42.4303 36.7295 40.468 33.3977 39.8407 29.7066C39.2134 26.0155 39.9649 22.2226 41.9523 19.0496C37.0673 21.7729 33.1442 25.9405 30.7208 30.9811L37.1199 37.3801C37.4817 37.7438 37.6845 38.236 37.6839 38.749C37.6833 39.262 37.4792 39.7538 37.1165 40.1165C36.7538 40.4792 36.262 40.6833 35.749 40.6839C35.236 40.6845 34.7437 40.4817 34.3801 40.1199L29.2299 34.9696C28.5071 37.4142 28 39.9496 28.0038 42.6288Z" fill="url(#paint0_linear_834_928)"/>
<defs>
<linearGradient id="paint0_linear_834_928" x1="55" y1="-1.37657e-07" x2="55" y2="124" gradientUnits="userSpaceOnUse">
<stop stop-color="#11C9BD"/>
<stop offset="1" stop-color="#21ADBC"/>
</linearGradient>
</defs>
</svg>
