<svg width="110" height="124" viewBox="0 0 110 124" fill="none" xmlns="http://www.w3.org/2000/svg">
<path d="M95.75 0H14.5C8.08203 0 0.875 7.20703 0.875 13.625V110.375C0.875 116.793 8.08203 124 14.5 124H95.75C102.168 124 109.375 116.793 109.375 110.375V62V13.625C109.375 7.20703 102.168 0 95.75 0ZM55.125 27C64.7641 27 72.625 32.5 72.625 44.5C72.625 55.5 63.6742 62 55.125 62C46.5758 62 37.625 55.5 37.625 44.5C37.625 33.5 45.4859 27 55.125 27ZM83.25 90.35C83.25 92.9172 80.8281 95 77.825 95H32.425C29.4219 95 27 92.9172 27 90.35V83.7C27 75.9984 35.2898 69.75 44.275 69.75H45.4859C48.4648 70.9852 51.7102 71.6875 55.125 71.6875C58.5398 71.6875 61.8094 70.9852 64.7641 69.75H65.975C74.9602 69.75 83.25 75.9984 83.25 83.7V90.35Z" fill="url(#paint0_linear_834_926)"/>
<defs>
<linearGradient id="paint0_linear_834_926" x1="55.125" y1="0" x2="55.125" y2="124" gradientUnits="userSpaceOnUse">
<stop stop-color="#76CBF9"/>
<stop offset="1" stop-color="#26A0EC"/>
</linearGradient>
</defs>
</svg>
